<svg width="22" height="22" viewBox="0 0 22 22" fill="none" xmlns="http://www.w3.org/2000/svg">
<path fill-rule="evenodd" clip-rule="evenodd" d="M21.8905 10.9453C21.8905 16.9902 16.9902 21.8905 10.9453 21.8905C4.90031 21.8905 0 16.9902 0 10.9453C0 4.90031 4.90031 0 10.9453 0C16.9902 0 21.8905 4.90031 21.8905 10.9453" fill="#FFC246"/>
<path fill-rule="evenodd" clip-rule="evenodd" d="M15.8446 9.45058C16.0709 7.91328 14.912 7.08231 13.3211 6.52833L13.8354 4.4509L12.5531 4.12543L12.0456 6.16132L11.0445 5.91895L11.545 3.87614L10.2902 3.5576L9.77586 5.63503L7.23864 5.0118L6.93006 6.36906C6.93006 6.36906 7.86266 6.58373 7.84209 6.59758C8.19642 6.65093 8.45037 6.97074 8.42496 7.3316L7.0535 13.0515C7.0172 13.1691 6.9361 13.2673 6.82805 13.3244C6.72 13.3816 6.59387 13.393 6.47748 13.3562L5.49688 13.1207L4.87286 14.5749L6.51177 14.9904L7.41008 15.2258L6.88892 17.3033L8.14381 17.6149L8.65811 15.5375L9.673 15.8283L9.1587 17.9057L10.4204 18.2243L10.9416 16.1122C13.0879 16.5277 14.6994 16.3615 15.3783 14.4018C15.9269 12.8229 15.3783 11.9089 14.2263 11.3203C15.1232 11.1399 15.7876 10.3724 15.8446 9.45058ZM12.9714 13.5223C12.5805 15.1012 9.94729 14.2148 9.09698 14.0348L9.78271 11.2649C10.6124 11.4518 13.3485 11.8673 12.9439 13.5223H12.9714ZM13.3554 9.42981C13.0057 10.8632 10.8113 10.1223 10.105 9.95609L10.7016 7.42162C11.4148 7.60167 13.6982 7.93406 13.328 9.42981H13.3554Z" fill="white"/>
</svg>
