<svg width="44" height="44" viewBox="0 0 44 44" fill="none" xmlns="http://www.w3.org/2000/svg">
<path fill-rule="evenodd" clip-rule="evenodd" d="M21.8905 21.9453C21.8905 27.9902 16.9902 32.8905 10.9453 32.8905C4.90031 32.8905 0 27.9902 0 21.9453C0 15.9003 4.90031 11 10.9453 11C16.9902 11 21.8905 15.9003 21.8905 21.9453" fill="#07BEAA"/>
<path fill-rule="evenodd" clip-rule="evenodd" d="M17.4935 17.1161L17.5648 17.153C17.6005 17.153 17.6005 17.1887 17.5998 17.2243V17.3312V17.3312C17.5998 17.6523 17.5998 17.9734 17.5642 18.2942C17.5285 18.7578 17.4572 19.2231 17.3859 19.6851C17.2083 20.6833 16.887 21.6466 16.4945 22.5376C15.3888 25.034 13.4976 27.1378 11.1429 28.5287L11.0002 28.6L10.9289 28.5644C7.92245 26.8083 5.73017 23.938 4.82788 20.5764C4.68333 20.0376 4.57611 19.4895 4.50697 18.936C4.43583 18.3801 4.4001 17.8203 4.39999 17.2599C4.39999 17.2081 4.39999 17.1898 4.40812 17.1764C4.41257 17.169 4.41944 17.1632 4.43008 17.1541L4.43008 17.1541C4.44011 17.1456 4.45348 17.1342 4.47131 17.1161C6.57609 15.9406 8.9308 15.3341 11.3215 15.4057C11.6781 15.4057 12.035 15.4413 12.3916 15.477C14.1754 15.6555 15.9239 16.2251 17.4935 17.1161ZM5.0415 19.0429C5.07804 19.4643 5.1496 19.8818 5.25544 20.2913C5.25544 20.3604 5.28954 20.4294 5.3232 20.4976L5.32643 20.5042C5.96925 21.8948 7.64548 22.5366 9.07277 21.8591C9.81008 21.5143 10.3581 20.8625 10.571 20.0771C10.6425 19.8096 10.6793 19.534 10.6807 19.2571C10.6807 19.0802 10.716 18.9036 10.7513 18.727L10.7523 18.7222C10.9627 17.6187 11.7131 16.6945 12.7501 16.2617L12.9271 16.1901C12.9271 16.1901 12.9627 16.1901 12.9271 16.1544C12.3546 16.0475 11.7837 16.0119 11.1772 15.9762C9.00113 15.9407 6.85608 16.4953 4.97018 17.581V17.6523C4.97018 18.116 5.00584 18.5809 5.0415 19.0429ZM13.5326 25.8897C13.4782 25.9441 13.4445 26.0194 13.4158 26.0837C13.4069 26.1037 13.3984 26.1226 13.39 26.1395C13.3633 26.1932 13.327 26.2415 13.283 26.2821C12.6052 26.8883 11.8557 27.4589 11.0709 27.9225L11.0002 27.9581C10.7695 27.8568 10.5535 27.7249 10.3581 27.5658C8.9733 26.6398 7.79504 25.4377 6.89733 24.0348C6.49613 23.3874 6.15001 22.7076 5.86261 22.0023C5.84206 21.9816 5.83336 21.9728 5.82967 21.9623C5.82695 21.9545 5.82695 21.9458 5.82695 21.9307L5.89827 21.967C6.11432 22.1434 6.3546 22.2879 6.61175 22.396C6.93299 22.5386 7.25391 22.6102 7.61081 22.6458C8.30553 22.7184 9.00533 22.5682 9.60895 22.2168C9.96552 22.0386 10.3224 21.8958 10.679 21.8601C12.035 21.7176 13.3203 22.5376 13.7119 23.8573C13.9258 24.5347 13.8545 25.2479 13.5332 25.8897H13.5326ZM16.9583 18.6509C16.994 18.3298 16.994 17.9734 16.994 17.6523L16.9947 17.5804L16.8877 17.5447C16.7597 17.4711 16.6223 17.3977 16.485 17.3244C16.3547 17.2547 16.2245 17.1852 16.1029 17.1157L16.0711 17.1014C15.6892 16.9296 15.3072 16.7578 14.9255 16.6537C13.4619 16.1901 11.855 17.0105 11.3928 18.4724C11.2438 18.9088 11.2191 19.378 11.3215 19.8277C11.4646 20.6101 11.9308 21.2962 12.6058 21.7176L12.7485 21.7888C13.7832 22.4307 14.4253 23.5718 14.354 24.8199C14.3362 24.8735 14.3273 24.927 14.3184 24.9804C14.3095 25.034 14.3006 25.0875 14.2827 25.141C14.3048 25.141 14.3132 25.1273 14.3248 25.1085C14.332 25.0969 14.3404 25.0833 14.354 25.0697L14.3608 25.0609C14.6082 24.7428 14.8555 24.4246 15.0675 24.0711C16.1304 22.4454 16.7795 20.5847 16.9583 18.6509Z" fill="white"/>
<path fill-rule="evenodd" clip-rule="evenodd" d="M43.9066 11.0543C43.9066 17.0993 39.0063 21.9996 32.9613 21.9996C26.9163 21.9996 22.016 17.0993 22.016 11.0543C22.016 5.00936 26.9163 0.109055 32.9613 0.109055C39.0063 0.109055 43.9066 5.00936 43.9066 11.0543" fill="#5470DE"/>
<path fill-rule="evenodd" clip-rule="evenodd" d="M27.5942 11.1676L33 14.3524L38.4059 11.1676L33 2.2L27.5942 11.1676ZM27.5942 12.2153L33 19.8L38.4059 12.2153L33 15.3582L27.5942 12.2153Z" fill="white"/>
<path fill-rule="evenodd" clip-rule="evenodd" d="M32.8905 32.9453C32.8905 38.9902 27.9902 43.8905 21.9453 43.8905C15.9003 43.8905 11 38.9902 11 32.9453C11 26.9003 15.9003 22 21.9453 22C27.9902 22 32.8905 26.9003 32.8905 32.9453" fill="#FFC246"/>
<path fill-rule="evenodd" clip-rule="evenodd" d="M26.8446 31.4506C27.0709 29.9133 25.912 29.0823 24.3211 28.5283L24.8354 26.4509L23.5531 26.1254L23.0456 28.1613L22.0445 27.9189L22.545 25.8761L21.2902 25.5576L20.7759 27.635L18.2386 27.0118L17.9301 28.3691C17.9301 28.3691 18.8627 28.5837 18.8421 28.5976C19.1964 28.6509 19.4504 28.9707 19.425 29.3316L18.0535 35.0515C18.0172 35.1691 17.9361 35.2673 17.828 35.3244C17.72 35.3816 17.5939 35.393 17.4775 35.3562L16.4969 35.1207L15.8729 36.5749L17.5118 36.9904L18.4101 37.2258L17.8889 39.3033L19.1438 39.6149L19.6581 37.5375L20.673 37.8283L20.1587 39.9057L21.4204 40.2243L21.9416 38.1122C24.0879 38.5277 25.6994 38.3615 26.3783 36.4018C26.9269 34.8229 26.3783 33.9089 25.2263 33.3203C26.1232 33.1399 26.7876 32.3724 26.8446 31.4506ZM23.9714 35.5223C23.5805 37.1012 20.9473 36.2148 20.097 36.0348L20.7827 33.2649C21.6124 33.4518 24.3485 33.8673 23.9439 35.5223H23.9714ZM24.3554 31.4298C24.0057 32.8632 21.8113 32.1223 21.105 31.9561L21.7016 29.4216C22.4148 29.6017 24.6982 29.9341 24.328 31.4298H24.3554Z" fill="white"/>
</svg>
