<svg width="331" height="115" viewBox="0 0 331 115" fill="none" xmlns="http://www.w3.org/2000/svg">
<path d="M51.4005 32.326L48.2369 42.4009L32.323 37.4039L30.5615 43.0138L42.0103 46.6088L39.0085 56.1686L27.5597 52.5736L22.7604 67.8578L10.0521 63.8674L22.7784 23.3385L51.4005 32.326Z" fill="white"/>
<path d="M71.4469 37.0844L61.5514 78.3958L48.5978 75.2929L58.4934 33.9816L71.4469 37.0844Z" fill="white"/>
<path d="M87.982 73.3052L100.636 75.4802L98.929 85.4145L73.147 80.9832L80.3428 39.1171L93.4703 41.3734L87.982 73.3052Z" fill="white"/>
<path d="M162.678 48.1749L159.923 90.5655L146.691 89.7056L148.064 68.5702L140.165 89.2815L128.789 88.5422L123.636 66.9827L122.262 88.1181L108.97 87.2544L111.725 44.8638L128.011 45.9221L135.697 71.9754L146.452 47.1205L162.678 48.1749Z" fill="white"/>
<path d="M184.27 47.0969L185.49 89.5594L172.176 89.9419L170.956 47.4794L184.27 47.0969Z" fill="white"/>
<path d="M213.97 87.8778C208.916 88.3904 204.618 87.6401 201.077 85.6271C197.572 83.5703 195.448 80.2678 194.705 75.7195L208.793 74.2908C209.238 76.6982 210.435 77.803 212.385 77.6053C213.102 77.5326 213.683 77.3129 214.128 76.9461C214.609 76.5355 214.813 75.972 214.74 75.2557C214.639 74.2608 214.022 73.5194 212.886 73.0314C211.747 72.5036 210.003 71.9568 207.654 71.3909C204.851 70.7102 202.508 70.003 200.624 69.2693C198.781 68.5316 197.133 67.3518 195.682 65.7299C194.231 64.108 193.386 61.9221 193.147 59.1722C192.869 56.4263 193.329 54.0276 194.529 51.9761C195.763 49.8808 197.544 48.2127 199.871 46.9716C202.237 45.7265 204.953 44.9485 208.017 44.6378C213.19 44.1132 217.41 44.8914 220.677 46.9724C223.984 49.0494 225.936 52.2487 226.535 56.5703L212.269 58.0171C212.108 56.8273 211.722 56.0019 211.113 55.5411C210.503 55.0802 209.8 54.8902 209.005 54.9709C208.447 55.0274 208.01 55.2728 207.692 55.7071C207.37 56.1015 207.244 56.637 207.312 57.3136C207.409 58.2687 208.007 59.0121 209.106 59.5439C210.241 60.0319 212.007 60.5966 214.404 61.2381C217.172 61.9626 219.457 62.6957 221.261 63.4375C223.105 64.1752 224.747 65.2953 226.185 66.7978C227.624 68.3003 228.469 70.2852 228.719 72.7526C228.981 75.3393 228.581 77.7319 227.517 79.9305C226.45 82.0892 224.76 83.8687 222.45 85.269C220.139 86.6692 217.313 87.5388 213.97 87.8778Z" fill="white"/>
<path d="M265.059 36.1878L267.069 46.5548L255.995 48.7016L262.07 80.0382L248.994 82.5733L242.919 51.2367L231.963 53.3607L229.953 42.9937L265.059 36.1878Z" fill="white"/>
<path d="M306.13 61.8974L292.567 65.9667L292.401 72.7194L279.01 76.7369L281.687 31.583L296.399 27.1688L323.434 63.4083L309.986 67.4431L306.13 61.8974ZM300.147 53.2312L293.072 43.0133L292.791 55.4382L300.147 53.2312Z" fill="white"/>
</svg>
