<svg width="488" height="12" viewBox="0 0 488 12" fill="none" xmlns="http://www.w3.org/2000/svg">
<path d="M0.826667 6C0.826666 8.85715 3.14285 11.1733 6 11.1733C8.85715 11.1733 11.1733 8.85715 11.1733 6C11.1733 3.14285 8.85715 0.826667 6 0.826667C3.14285 0.826666 0.826667 3.14285 0.826667 6ZM476.827 6.00004C476.827 8.85719 479.143 11.1734 482 11.1734C484.857 11.1734 487.173 8.8572 487.173 6.00004C487.173 3.14289 484.857 0.826708 482 0.826708C479.143 0.826708 476.827 3.14289 476.827 6.00004ZM6 6.97L482 6.97004L482 5.03004L6 5.03L6 6.97Z" fill="#A69BFF"/>
</svg>
