<svg width="347" height="130" viewBox="0 0 347 130" fill="none" xmlns="http://www.w3.org/2000/svg">
<g filter="url(#filter0_d_706_42)">
<path d="M142 97V124H153V107.846L142 97Z" fill="white"/>
</g>
<g filter="url(#filter1_d_706_42)">
<path d="M142 83V87.2586L163.192 109L171 101.155L152.931 83H142Z" fill="white"/>
</g>
<path d="M6.28632 49.8337L30.3644 36.3428L34.4704 43.6709L17.9821 52.9092L22.8799 61.6506L37.1697 53.6441L41.2756 60.9722L26.9858 68.9788L35.4616 84.1061L27.8718 88.3587L6.28632 49.8337Z" fill="white"/>
<path d="M47.1429 28.9168L55.1861 25.6006L72.019 66.4266L63.9758 69.7428L47.1429 28.9168Z" fill="white"/>
<path d="M76.2387 17.7698L84.6326 15.4822L94.0354 49.9838L114.065 44.5251L116.274 52.6296L87.8503 60.3759L76.2387 17.7698Z" fill="white"/>
<path d="M130.018 49.5652L126.493 3.74059L126.553 3.73599L153.69 36.551L149.916 35.9988L171.719 0.261009L171.839 0.251804L175.364 46.0764L166.69 46.7438L164.67 20.4814L165.553 24.9267L152.286 47.2502L152.167 47.2594L135.223 27.2602L136.401 23.0173L138.394 48.9208L130.018 49.5652Z" fill="white"/>
<path d="M194.995 3.49106L203.667 4.18941L200.122 48.2069L191.451 47.5086L194.995 3.49106Z" fill="white"/>
<path d="M246.689 21.919C245.223 20.6862 243.686 19.6024 242.079 18.6675C240.511 17.7406 238.981 17.1274 237.491 16.8281C235.648 16.4579 234.122 16.539 232.914 17.0715C231.705 17.6039 230.951 18.6153 230.652 20.1055C230.447 21.1251 230.654 22.1255 231.273 23.1066C231.939 24.0563 232.836 24.971 233.965 25.8505C235.133 26.7379 236.353 27.5744 237.623 28.3599C238.783 29.0825 239.904 29.8993 240.986 30.8101C242.115 31.6897 243.071 32.7181 243.855 33.8954C244.646 35.0336 245.19 36.3872 245.487 37.9564C245.792 39.4863 245.735 41.2906 245.318 43.3691C244.877 45.5652 243.899 47.4903 242.383 49.1442C240.868 50.7982 238.894 51.9929 236.461 52.7283C234.037 53.4245 231.217 53.4497 228.001 52.8038C226.354 52.4729 224.699 51.9774 223.037 51.3171C221.421 50.6254 219.857 49.7808 218.344 48.7833C216.838 47.7466 215.427 46.5452 214.11 45.1792L219.21 39.2881C220.08 40.238 221.044 41.1252 222.103 41.9498C223.208 42.743 224.337 43.4186 225.49 43.9765C226.643 44.5344 227.729 44.9157 228.749 45.1205C229.768 45.3253 230.815 45.3929 231.89 45.3231C233.012 45.2221 233.977 44.8856 234.786 44.3136C235.633 43.7494 236.183 42.8399 236.435 41.585C236.609 40.7222 236.472 39.8788 236.026 39.0547C235.618 38.2386 234.984 37.4379 234.121 36.6527C233.298 35.8754 232.361 35.1569 231.311 34.4971C230.08 33.7194 228.825 32.8555 227.547 31.9052C226.27 30.955 225.098 29.8832 224.032 28.69C223.013 27.4654 222.253 26.0684 221.752 24.4991C221.299 22.8984 221.281 21.0588 221.698 18.9803C222.202 16.4704 223.188 14.4042 224.657 12.7815C226.164 11.1668 228.044 10.0348 230.296 9.3855C232.556 8.69702 235.031 8.56177 237.721 8.97974C241.211 9.68077 243.952 10.6597 245.944 11.9164C247.975 13.1811 249.738 14.5554 251.236 16.0392L246.689 21.919Z" fill="white"/>
<path d="M267.558 16.3886L295.586 26.3933L292.762 34.3044L282.647 30.6938L270.625 64.3725L262.432 61.4478L274.453 27.7691L264.734 24.2997L267.558 16.3886Z" fill="white"/>
<path d="M289.004 71.1869L328.491 40.456L328.912 40.6861L324.388 90.5173L315.542 85.6847L319.855 51.258L327.455 50.4873L296.533 75.3003L289.004 71.1869ZM308.608 63.7104L320.245 70.0676L319.421 77.9586L302.729 68.8399L308.608 63.7104Z" fill="white"/>
<g filter="url(#filter2_d_706_42)">
<path d="M178.075 93L174 83H210V93H178.075Z" fill="white"/>
</g>
<g filter="url(#filter3_d_706_42)">
<path d="M174 109V123H184V109H174Z" fill="white"/>
</g>
<g filter="url(#filter4_d_706_42)">
<path d="M174 110H190.875L201 99H182.325L174 107.66V110Z" fill="white"/>
</g>
<g filter="url(#filter5_d_706_42)">
<path d="M174.534 83L156 101.288L163.592 109L179 93.7966L174.534 83Z" fill="white"/>
</g>
<defs>
<filter id="filter0_d_706_42" x="138" y="95" width="19" height="35" filterUnits="userSpaceOnUse" color-interpolation-filters="sRGB">
<feFlood flood-opacity="0" result="BackgroundImageFix"/>
<feColorMatrix in="SourceAlpha" type="matrix" values="0 0 0 0 0 0 0 0 0 0 0 0 0 0 0 0 0 0 127 0" result="hardAlpha"/>
<feOffset dy="2"/>
<feGaussianBlur stdDeviation="2"/>
<feComposite in2="hardAlpha" operator="out"/>
<feColorMatrix type="matrix" values="0 0 0 0 0 0 0 0 0 0 0 0 0 0 0 0 0 0 0.25 0"/>
<feBlend mode="normal" in2="BackgroundImageFix" result="effect1_dropShadow_706_42"/>
<feBlend mode="normal" in="SourceGraphic" in2="effect1_dropShadow_706_42" result="shape"/>
</filter>
<filter id="filter1_d_706_42" x="138" y="81" width="37" height="34" filterUnits="userSpaceOnUse" color-interpolation-filters="sRGB">
<feFlood flood-opacity="0" result="BackgroundImageFix"/>
<feColorMatrix in="SourceAlpha" type="matrix" values="0 0 0 0 0 0 0 0 0 0 0 0 0 0 0 0 0 0 127 0" result="hardAlpha"/>
<feOffset dy="2"/>
<feGaussianBlur stdDeviation="2"/>
<feComposite in2="hardAlpha" operator="out"/>
<feColorMatrix type="matrix" values="0 0 0 0 0 0 0 0 0 0 0 0 0 0 0 0 0 0 0.25 0"/>
<feBlend mode="normal" in2="BackgroundImageFix" result="effect1_dropShadow_706_42"/>
<feBlend mode="normal" in="SourceGraphic" in2="effect1_dropShadow_706_42" result="shape"/>
</filter>
<filter id="filter2_d_706_42" x="170" y="81" width="44" height="18" filterUnits="userSpaceOnUse" color-interpolation-filters="sRGB">
<feFlood flood-opacity="0" result="BackgroundImageFix"/>
<feColorMatrix in="SourceAlpha" type="matrix" values="0 0 0 0 0 0 0 0 0 0 0 0 0 0 0 0 0 0 127 0" result="hardAlpha"/>
<feOffset dy="2"/>
<feGaussianBlur stdDeviation="2"/>
<feComposite in2="hardAlpha" operator="out"/>
<feColorMatrix type="matrix" values="0 0 0 0 0 0 0 0 0 0 0 0 0 0 0 0 0 0 0.25 0"/>
<feBlend mode="normal" in2="BackgroundImageFix" result="effect1_dropShadow_706_42"/>
<feBlend mode="normal" in="SourceGraphic" in2="effect1_dropShadow_706_42" result="shape"/>
</filter>
<filter id="filter3_d_706_42" x="170" y="107" width="18" height="22" filterUnits="userSpaceOnUse" color-interpolation-filters="sRGB">
<feFlood flood-opacity="0" result="BackgroundImageFix"/>
<feColorMatrix in="SourceAlpha" type="matrix" values="0 0 0 0 0 0 0 0 0 0 0 0 0 0 0 0 0 0 127 0" result="hardAlpha"/>
<feOffset dy="2"/>
<feGaussianBlur stdDeviation="2"/>
<feComposite in2="hardAlpha" operator="out"/>
<feColorMatrix type="matrix" values="0 0 0 0 0 0 0 0 0 0 0 0 0 0 0 0 0 0 0.25 0"/>
<feBlend mode="normal" in2="BackgroundImageFix" result="effect1_dropShadow_706_42"/>
<feBlend mode="normal" in="SourceGraphic" in2="effect1_dropShadow_706_42" result="shape"/>
</filter>
<filter id="filter4_d_706_42" x="169" y="97" width="35" height="19" filterUnits="userSpaceOnUse" color-interpolation-filters="sRGB">
<feFlood flood-opacity="0" result="BackgroundImageFix"/>
<feColorMatrix in="SourceAlpha" type="matrix" values="0 0 0 0 0 0 0 0 0 0 0 0 0 0 0 0 0 0 127 0" result="hardAlpha"/>
<feOffset dx="-1" dy="2"/>
<feGaussianBlur stdDeviation="2"/>
<feComposite in2="hardAlpha" operator="out"/>
<feColorMatrix type="matrix" values="0 0 0 0 0 0 0 0 0 0 0 0 0 0 0 0 0 0 0.25 0"/>
<feBlend mode="normal" in2="BackgroundImageFix" result="effect1_dropShadow_706_42"/>
<feBlend mode="normal" in="SourceGraphic" in2="effect1_dropShadow_706_42" result="shape"/>
</filter>
<filter id="filter5_d_706_42" x="152" y="81" width="31" height="34" filterUnits="userSpaceOnUse" color-interpolation-filters="sRGB">
<feFlood flood-opacity="0" result="BackgroundImageFix"/>
<feColorMatrix in="SourceAlpha" type="matrix" values="0 0 0 0 0 0 0 0 0 0 0 0 0 0 0 0 0 0 127 0" result="hardAlpha"/>
<feOffset dy="2"/>
<feGaussianBlur stdDeviation="2"/>
<feComposite in2="hardAlpha" operator="out"/>
<feColorMatrix type="matrix" values="0 0 0 0 0 0 0 0 0 0 0 0 0 0 0 0 0 0 0.25 0"/>
<feBlend mode="normal" in2="BackgroundImageFix" result="effect1_dropShadow_706_42"/>
<feBlend mode="normal" in="SourceGraphic" in2="effect1_dropShadow_706_42" result="shape"/>
</filter>
</defs>
</svg>
